<?xml version="1.0" encoding="UTF-8" standalone="no"?>
<!DOCTYPE svg PUBLIC "-//W3C//DTD SVG 1.1//EN"
 "http://www.w3.org/Graphics/SVG/1.1/DTD/svg11.dtd">
<!-- Generated by graphviz version 2.36.0 (20140111.2315)
 -->
<!-- Title: G Pages: 1 -->
<svg width="334pt" height="582pt"
 viewBox="0.00 0.00 334.00 582.00" xmlns="http://www.w3.org/2000/svg" xmlns:xlink="http://www.w3.org/1999/xlink">
<g id="graph0" class="graph" transform="scale(1 1) rotate(0) translate(4 578)">
<title>G</title>
<polygon fill="white" stroke="none" points="-4,4 -4,-578 330,-578 330,4 -4,4"/>
<g id="clust1" class="cluster"><title>cluster_Global</title>
<path fill="none" stroke="gray" d="M20,-8C20,-8 306,-8 306,-8 312,-8 318,-14 318,-20 318,-20 318,-554 318,-554 318,-560 312,-566 306,-566 306,-566 20,-566 20,-566 14,-566 8,-560 8,-554 8,-554 8,-20 8,-20 8,-14 14,-8 20,-8"/>
<text text-anchor="middle" x="163" y="-553.2" font-family="Times,serif" font-size="11.00" fill="gray">Global</text>
</g>
<g id="clust2" class="cluster"><title>cluster_\HelloBigWorld</title>
<path fill="none" stroke="gray" d="M28,-16C28,-16 298,-16 298,-16 304,-16 310,-22 310,-28 310,-28 310,-526 310,-526 310,-532 304,-538 298,-538 298,-538 28,-538 28,-538 22,-538 16,-532 16,-526 16,-526 16,-28 16,-28 16,-22 22,-16 28,-16"/>
<text text-anchor="middle" x="163" y="-525.2" font-family="Times,serif" font-size="11.00" fill="gray">HelloBigWorld</text>
</g>
<g id="clust3" class="cluster"><title>cluster_\HelloBigWorld\Model</title>
<path fill="none" stroke="gray" d="M36,-104C36,-104 290,-104 290,-104 296,-104 302,-110 302,-116 302,-116 302,-498 302,-498 302,-504 296,-510 290,-510 290,-510 36,-510 36,-510 30,-510 24,-504 24,-498 24,-498 24,-116 24,-116 24,-110 30,-104 36,-104"/>
<text text-anchor="middle" x="163" y="-497.2" font-family="Times,serif" font-size="11.00" fill="gray">Model</text>
</g>
<g id="clust4" class="cluster"><title>cluster_\HelloBigWorld\Model\Atom</title>
<path fill="none" stroke="gray" d="M44,-112C44,-112 282,-112 282,-112 288,-112 294,-118 294,-124 294,-124 294,-470 294,-470 294,-476 288,-482 282,-482 282,-482 44,-482 44,-482 38,-482 32,-476 32,-470 32,-470 32,-124 32,-124 32,-118 38,-112 44,-112"/>
<text text-anchor="middle" x="163" y="-469.2" font-family="Times,serif" font-size="11.00" fill="gray">Atom</text>
</g>
<g id="clust5" class="cluster"><title>cluster_\HelloBigWorld\Model\Atom\SubAtomic</title>
<path fill="none" stroke="gray" d="M210,-274C210,-274 274,-274 274,-274 280,-274 286,-280 286,-286 286,-286 286,-442 286,-442 286,-448 280,-454 274,-454 274,-454 210,-454 210,-454 204,-454 198,-448 198,-442 198,-442 198,-286 198,-286 198,-280 204,-274 210,-274"/>
<text text-anchor="middle" x="242" y="-441.2" font-family="Times,serif" font-size="11.00" fill="gray">SubAtomic</text>
</g>
<g id="clust6" class="cluster"><title>cluster_\HelloBigWorld\Annotation</title>
<path fill="none" stroke="gray" d="M200,-24C200,-24 284,-24 284,-24 290,-24 296,-30 296,-36 296,-36 296,-84 296,-84 296,-90 290,-96 284,-96 284,-96 200,-96 200,-96 194,-96 188,-90 188,-84 188,-84 188,-36 188,-36 188,-30 194,-24 200,-24"/>
<text text-anchor="middle" x="242" y="-83.2" font-family="Times,serif" font-size="11.00" fill="gray">Annotation</text>
</g>
<!-- \\HelloBigWorld\\Model\\Atom\\SubAtomic\\Electron -->
<g id="node1" class="node"><title>\\HelloBigWorld\\Model\\Atom\\SubAtomic\\Electron</title>
<polygon fill="none" stroke="black" points="277.5,-426 206.5,-426 206.5,-390 277.5,-390 277.5,-426"/>
<text text-anchor="middle" x="242" y="-405.2" font-family="Courier,monospace" font-size="11.00">Electron</text>
</g>
<!-- \\HelloBigWorld\\Model\\Atom\\SubAtomic\\Proton -->
<g id="node2" class="node"><title>\\HelloBigWorld\\Model\\Atom\\SubAtomic\\Proton</title>
<polygon fill="none" stroke="black" points="270.5,-372 213.5,-372 213.5,-336 270.5,-336 270.5,-372"/>
<text text-anchor="middle" x="242" y="-351.2" font-family="Courier,monospace" font-size="11.00">Proton</text>
</g>
<!-- \\HelloBigWorld\\Model\\Atom\\SubAtomic\\Neutron -->
<g id="node3" class="node"><title>\\HelloBigWorld\\Model\\Atom\\SubAtomic\\Neutron</title>
<polygon fill="none" stroke="black" points="274,-318 210,-318 210,-282 274,-282 274,-318"/>
<text text-anchor="middle" x="242" y="-297.2" font-family="Courier,monospace" font-size="11.00">Neutron</text>
</g>
<!-- \\HelloBigWorld\\Model\\Atom\\Atom -->
<g id="node4" class="node"><title>\\HelloBigWorld\\Model\\Atom\\Atom</title>
<polygon fill="none" stroke="black" points="124,-210 40,-210 40,-174 124,-174 124,-210"/>
<text text-anchor="start" x="48" y="-195.2" font-family="Courier,monospace" font-size="11.00">«abstract»</text>
<text text-anchor="start" x="68" y="-183.2" font-family="Courier,monospace" font-size="11.00">Atom</text>
</g>
<!-- \\HelloBigWorld\\Model\\Atom\\Oxygen -->
<g id="node5" class="node"><title>\\HelloBigWorld\\Model\\Atom\\Oxygen</title>
<polygon fill="none" stroke="black" points="270.5,-264 213.5,-264 213.5,-228 270.5,-228 270.5,-264"/>
<text text-anchor="middle" x="242" y="-243.2" font-family="Courier,monospace" font-size="11.00">Oxygen</text>
</g>
<!-- \\HelloBigWorld\\Model\\Atom\\Oxygen&#45;&gt;\\HelloBigWorld\\Model\\Atom\\Atom -->
<g id="edge1" class="edge"><title>\\HelloBigWorld\\Model\\Atom\\Oxygen&#45;&gt;\\HelloBigWorld\\Model\\Atom\\Atom</title>
<path fill="none" stroke="black" d="M213.479,-236.594C191.509,-229.085 160.132,-218.361 133.653,-209.312"/>
<polygon fill="none" stroke="black" points="134.74,-205.985 124.145,-206.062 132.476,-212.608 134.74,-205.985"/>
</g>
<!-- \\HelloBigWorld\\Model\\Atom\\Carbon -->
<g id="node6" class="node"><title>\\HelloBigWorld\\Model\\Atom\\Carbon</title>
<polygon fill="none" stroke="black" points="270.5,-210 213.5,-210 213.5,-174 270.5,-174 270.5,-210"/>
<text text-anchor="middle" x="242" y="-189.2" font-family="Courier,monospace" font-size="11.00">Carbon</text>
</g>
<!-- \\HelloBigWorld\\Model\\Atom\\Carbon&#45;&gt;\\HelloBigWorld\\Model\\Atom\\Atom -->
<g id="edge2" class="edge"><title>\\HelloBigWorld\\Model\\Atom\\Carbon&#45;&gt;\\HelloBigWorld\\Model\\Atom\\Atom</title>
<path fill="none" stroke="black" d="M213.479,-192C191.702,-192 160.681,-192 134.35,-192"/>
<polygon fill="none" stroke="black" points="134.145,-188.5 124.145,-192 134.145,-195.5 134.145,-188.5"/>
</g>
<!-- \\HelloBigWorld\\Model\\Atom\\Hydrogen -->
<g id="node7" class="node"><title>\\HelloBigWorld\\Model\\Atom\\Hydrogen</title>
<polygon fill="none" stroke="black" points="277.5,-156 206.5,-156 206.5,-120 277.5,-120 277.5,-156"/>
<text text-anchor="middle" x="242" y="-135.2" font-family="Courier,monospace" font-size="11.00">Hydrogen</text>
</g>
<!-- \\HelloBigWorld\\Model\\Atom\\Hydrogen&#45;&gt;\\HelloBigWorld\\Model\\Atom\\Atom -->
<g id="edge3" class="edge"><title>\\HelloBigWorld\\Model\\Atom\\Hydrogen&#45;&gt;\\HelloBigWorld\\Model\\Atom\\Atom</title>
<path fill="none" stroke="black" d="M206.326,-149.851C185.009,-157.136 157.325,-166.598 133.589,-174.71"/>
<polygon fill="none" stroke="black" points="132.361,-171.431 124.03,-177.977 134.625,-178.055 132.361,-171.431"/>
</g>
<!-- \\HelloBigWorld\\Annotation\\CoreConcept -->
<g id="node8" class="node"><title>\\HelloBigWorld\\Annotation\\CoreConcept</title>
<polygon fill="none" stroke="black" points="287.5,-68 196.5,-68 196.5,-32 287.5,-32 287.5,-68"/>
<text text-anchor="middle" x="242" y="-47.2" font-family="Courier,monospace" font-size="11.00">CoreConcept</text>
</g>
</g>
</svg>
